<svg width="118" height="28" viewBox="0 0 118 28" fill="none" xmlns="http://www.w3.org/2000/svg">
<path d="M15.1498 13.2591C15.1498 17.5069 12.5427 20.4924 8.8511 20.4924C7.14222 20.4924 5.69625 19.8448 4.557 18.5825L4.28314 20.218H0V0.5049H4.9404V7.54057C6.00297 6.53077 7.30654 6.02587 8.8511 6.02587C12.5427 6.02587 15.1498 9.01137 15.1498 13.2591ZM10.2642 13.2591C10.2642 11.459 9.17973 10.2517 7.58039 10.2517C5.98106 10.2517 4.89658 11.459 4.89658 13.2591C4.89658 15.0592 5.98106 16.2666 7.58039 16.2666C9.17973 16.2666 10.2642 15.0592 10.2642 13.2591ZM16.9463 2.67817C16.9463 1.09761 18.1185 0 19.7397 0C21.3609 0 22.5659 1.09761 22.5659 2.67817C22.5659 4.25872 21.3938 5.3234 19.7397 5.3234C18.0856 5.3234 16.9463 4.22579 16.9463 2.67817ZM17.275 6.30027H22.2154V20.207H17.275V6.30027ZM39.2055 22.0949C39.2055 25.695 36.2479 28 31.6251 28C27.0024 28 23.9133 25.245 24.4062 21.1838H29.1056C29.0509 22.929 29.8944 23.8291 31.6361 23.8291C33.104 23.8291 34.1118 23.0169 34.1118 21.8314C34.1118 20.646 33.2683 19.9765 31.6909 19.9765C27.1558 19.9765 24.22 17.1886 24.22 12.8859C24.22 8.5833 27.2872 5.88318 31.6909 5.88318C32.5891 5.88318 33.5093 6.04782 34.4294 6.44296L35.8973 4.47824L39.5123 7.15641L37.7705 9.29675C38.5811 10.2297 39.0193 11.4371 39.0193 12.8969C39.0193 14.7848 38.0991 16.4971 36.5765 17.6495C38.2635 18.5825 39.2055 20.1301 39.2055 22.0949ZM34.2432 12.8859C34.2432 11.1956 33.2135 10.076 31.669 10.076C30.1244 10.076 29.0947 11.2066 29.0947 12.8859C29.0947 14.5653 30.1244 15.6958 31.669 15.6958C33.2135 15.6958 34.2432 14.5653 34.2432 12.8859ZM62.9326 13.2591C62.9326 17.5069 60.3255 20.4924 56.6339 20.4924C55.1112 20.4924 53.8077 19.9875 52.7232 18.9777V26.0133H47.7828V6.30027H52.0769L52.3507 7.90278C53.49 6.64053 54.9031 6.0149 56.6448 6.0149C60.3364 6.0149 62.9436 9.00039 62.9436 13.2481L62.9326 13.2591ZM58.047 13.2591C58.047 11.459 56.9625 10.2517 55.3632 10.2517C53.7638 10.2517 52.6794 11.459 52.6794 13.2591C52.6794 15.0592 53.7638 16.2666 55.3632 16.2666C56.9625 16.2666 58.047 15.0592 58.047 13.2591ZM64.7291 2.67817C64.7291 1.09761 65.9012 0 67.5225 0C69.1437 0 70.3487 1.09761 70.3487 2.67817C70.3487 4.25872 69.1766 5.3234 67.5225 5.3234C65.8684 5.3234 64.7291 4.22579 64.7291 2.67817ZM65.0577 6.30027H69.9981V20.207H65.0577V6.30027ZM86.7473 20.207H81.1497L80.2843 18.6045L79.0355 16.2666L77.7867 18.6045L76.8665 20.207H71.3784L75.7492 13.2262L71.7289 6.30027H77.217L78.1153 7.99059L79.0683 10.0431L80.9963 6.30027H86.342L82.4094 13.2262L86.7583 20.207H86.7473ZM101.36 14.6641H91.9397C92.2135 15.7287 93.298 16.5519 95.0069 16.5519C96.2338 16.5519 97.4497 16.2117 98.4794 15.4873L100.9 18.2971C99.2462 19.757 97.1211 20.5253 94.733 20.5253C89.9022 20.5253 86.9445 17.7922 86.9445 13.325C86.9445 8.8577 89.935 6.00392 94.3277 6.00392C99.4653 6.00392 102.335 9.60408 101.36 14.675V14.6641ZM91.9616 12.1066H96.8472C96.8253 10.7236 95.9489 9.87848 94.4811 9.87848C93.0132 9.87848 92.0054 10.7236 91.9506 12.1066H91.9616ZM103.606 0.5049H108.546V20.207H103.606V0.5049ZM118 3.97334C118 6.22344 116.455 7.804 114.254 7.804C112.052 7.804 110.529 6.25637 110.529 3.97334C110.529 1.69032 112.019 0.142689 114.254 0.142689C116.488 0.142689 118 1.72325 118 3.97334ZM117.178 3.97334C117.178 2.14034 116.006 0.965896 114.243 0.965896C112.479 0.965896 111.34 2.17327 111.34 3.97334C111.34 5.77342 112.512 6.95884 114.243 6.95884C115.973 6.95884 117.178 5.77342 117.178 3.97334ZM115.086 4.53312L115.93 5.91611H115.119L114.363 4.65386H113.553V5.91611H112.873V1.90984H114.527C115.371 1.90984 115.941 2.50255 115.941 3.29283C115.941 3.85261 115.612 4.33556 115.097 4.53312H115.086ZM115.229 3.29283C115.229 2.87574 114.955 2.61231 114.495 2.61231H113.542V3.94042H114.495C114.955 3.94042 115.229 3.68797 115.229 3.29283Z" fill="white"/>
</svg>
